<svg width="70" height="73" viewBox="0 0 70 73" fill="none" xmlns="http://www.w3.org/2000/svg">
<path d="M9.04815 16.135C17.9563 0.705648 37.6857 -4.58083 53.115 4.3273C68.5443 13.2354 73.8308 32.9648 64.9227 48.3942L60.2018 56.5709C51.2937 72.0003 31.5643 77.2867 16.135 68.3786C0.705648 59.4705 -4.58083 39.7411 4.3273 24.3117L9.04815 16.135Z" transform="translate(0.375 0.212769)" fill="black"/>
<path d="M54.3285 43.6728C46.2895 57.5968 28.4849 62.3675 14.5608 54.3285C0.636804 46.2895 -4.13392 28.4849 3.90512 14.5608C11.9442 0.636804 29.7488 -4.13392 43.6728 3.90512C57.5968 11.9442 62.3675 29.7488 54.3285 43.6728Z" transform="translate(8.24353 3.36053)" fill="#F5F905"/>
<path d="M0 35.6687H11.1902C18.9154 35.6687 25.1779 29.2809 25.1779 21.4012V14.2675C25.1779 6.38776 18.9154 0 11.1902 0H0V3.56687H11.1902C16.9841 3.56687 21.681 8.35769 21.681 14.2675V21.4012C21.681 27.311 16.9841 32.1018 11.1902 32.1018H0V35.6687Z" transform="translate(25.0337 14.0105)" fill="black"/>
<path fill-rule="evenodd" clip-rule="evenodd" d="M0 32.1018V0H3.49693V32.1018H0Z" transform="translate(28.5306 16.1507)" fill="black"/>
<path fill-rule="evenodd" clip-rule="evenodd" d="M7.34355 3.56687H0V0H7.34355V3.56687Z" transform="translate(30.9785 27.5646)" fill="black"/>
<path fill-rule="evenodd" clip-rule="evenodd" d="M0 9.27386V0H3.49693V9.27386H0Z" transform="translate(36.9233 24.7112)" fill="black"/>
</svg>
