<?xml version="1.0" encoding="utf-8"?>
<!-- Generator: Adobe Illustrator 22.0.1, SVG Export Plug-In . SVG Version: 6.00 Build 0)  -->
<!DOCTYPE svg PUBLIC "-//W3C//DTD SVG 1.1//EN" "http://www.w3.org/Graphics/SVG/1.1/DTD/svg11.dtd">
<svg version="1.1" id="Layer_1" xmlns="http://www.w3.org/2000/svg" xmlns:xlink="http://www.w3.org/1999/xlink" x="0px" y="0px"
	 viewBox="0 0 448.5 135.4" style="enable-background:new 0 0 448.5 135.4;" xml:space="preserve">
<g>
	<g>
		<path d="M214.5,94c-14.5,0-26.3-11.8-26.3-26.3s11.8-26.3,26.3-26.3c14.5,0,26.3,11.8,26.3,26.3S229,94,214.5,94z M214.5,46.3
			c-11.8,0-21.4,9.6-21.4,21.4s9.6,21.4,21.4,21.4c11.8,0,21.4-9.6,21.4-21.4S226.3,46.3,214.5,46.3z"/>
	</g>
	<g>
		<rect x="199.8" y="65.2" transform="matrix(0.7071 -0.7071 0.7071 0.7071 14.9705 171.4557)" width="29.3" height="5"/>
	</g>
	<g>
		<path d="M357.6,94c-14.5,0-26.3-11.8-26.3-26.3s11.8-26.3,26.3-26.3S384,53.2,384,67.7S372.2,94,357.6,94z M357.6,46.3
			c-11.8,0-21.4,9.6-21.4,21.4s9.6,21.4,21.4,21.4c11.8,0,21.4-9.6,21.4-21.4S369.4,46.3,357.6,46.3z"/>
	</g>
	<g>
		<rect x="343" y="65.1" transform="matrix(0.7071 -0.7071 0.7071 0.7071 56.928 272.686)" width="29.3" height="5"/>
	</g>
	<g>
		<rect x="64.5" y="43.7" width="5" height="47.8"/>
	</g>
	<g>
		<polygon points="98.4,92.7 73.4,67.7 98.4,42.7 101.9,46.2 80.4,67.7 101.9,89.2 		"/>
	</g>
	<g>
		<rect x="143.5" y="73.9" width="5" height="18.2"/>
	</g>
	<g>
		<polygon points="146,68.6 124.2,46.8 127.7,43.3 146,61.5 164.3,43.3 167.8,46.8 		"/>
	</g>
	<g>
		<path d="M286,91.7h-16.7v-5H286c10.4,0,18.9-8.5,18.9-18.9s-8.5-18.9-18.9-18.9h-16.7v-5H286c13.2,0,24,10.7,24,24
			S299.1,91.7,286,91.7z"/>
	</g>
	<g>
		<rect x="269.3" y="55" width="5" height="25.8"/>
	</g>
</g>
</svg>
