<?xml version="1.0" encoding="utf-8"?>
<!-- Generator: Adobe Illustrator 22.0.1, SVG Export Plug-In . SVG Version: 6.00 Build 0)  -->
<!DOCTYPE svg PUBLIC "-//W3C//DTD SVG 1.1//EN" "http://www.w3.org/Graphics/SVG/1.1/DTD/svg11.dtd">
<svg version="1.1" id="Layer_1" xmlns="http://www.w3.org/2000/svg" xmlns:xlink="http://www.w3.org/1999/xlink" x="0px" y="0px"
	 viewBox="0 0 448.5 135.4" style="enable-background:new 0 0 448.5 135.4;" xml:space="preserve">
<g>
	<g>
		<path d="M212.9,98.5c-17,0-30.8-13.8-30.8-30.8s13.8-30.8,30.8-30.8s30.8,13.8,30.8,30.8S229.8,98.5,212.9,98.5z M212.9,42.7
			c-13.8,0-25,11.2-25,25s11.2,25,25,25s25-11.2,25-25S226.6,42.7,212.9,42.7z"/>
	</g>
	<g>
		<rect x="195.7" y="64.7" transform="matrix(0.7071 -0.7071 0.7071 0.7071 14.5228 170.3204)" width="34.2" height="5.8"/>
	</g>
	<g>
		<path d="M380.2,98.5c-17,0-30.8-13.8-30.8-30.8s13.8-30.8,30.8-30.8S411,50.7,411,67.7S397.2,98.5,380.2,98.5z M380.2,42.7
			c-13.8,0-25,11.2-25,25s11.2,25,25,25s25-11.2,25-25S394,42.7,380.2,42.7z"/>
	</g>
	<g>
		<rect x="363.1" y="64.7" transform="matrix(0.7071 -0.7071 0.7071 0.7071 63.5372 288.6516)" width="34.2" height="5.8"/>
	</g>
	<g>
		<rect x="37.5" y="39.7" width="5.8" height="55.9"/>
	</g>
	<g>
		<polygon points="77.1,96.9 47.9,67.7 77.1,38.5 81.2,42.6 56.1,67.7 81.2,92.8 		"/>
	</g>
	<g>
		<rect x="129.9" y="75" width="5.8" height="21.3"/>
	</g>
	<g>
		<polygon points="132.8,68.8 107.3,43.3 111.4,39.2 132.8,60.5 154.2,39.2 158.3,43.3 		"/>
	</g>
	<g>
		<path d="M296.4,95.7h-19.5v-5.8h19.5c12.2,0,22.1-9.9,22.1-22.1s-9.9-22.1-22.1-22.1h-19.5v-5.8h19.5c15.4,0,28,12.5,28,28
			S311.8,95.7,296.4,95.7z"/>
	</g>
	<g>
		<rect x="276.9" y="52.8" width="5.8" height="30.2"/>
	</g>
</g>
</svg>
