<svg width="18" height="19" viewBox="0 0 18 19" fill="none" xmlns="http://www.w3.org/2000/svg">
<path d="M6.81872 0H0V2.45185H6.81872V0Z" transform="translate(7.69702 11.0657)" fill="#233447"/>
<path fill-rule="evenodd" clip-rule="evenodd" d="M1.01118 0.276935L0.29855 0.80578L-4.17099e-07 1.7617L0.442272 3.19428L0.654404 3.61899L1.08315 3.74464L2.11654 -2.23507e-07L1.01118 0.276935Z" transform="translate(14.5195 13.1584)" fill="#BD6FD8"/>
<path fill-rule="evenodd" clip-rule="evenodd" d="M-2.43308e-07 0.410214L0.717046 3.35261e-07L1.30019 0.210562L0.428106 1.49117L0.0194331 1.08333L-2.43308e-07 0.410214Z" transform="translate(14.2305 13.2247)" fill="#BD6FD8"/>
<path fill-rule="evenodd" clip-rule="evenodd" d="M9.73232e-08 0.365508L1.84427 3.35261e-07L4.24363 0.460871L4.41525 2.07556L4.10816 2.65773L3.29495 1.35957L1.91431 2.12667L1.30412 1.97928L9.73232e-08 0.365508Z" transform="translate(6.29785 10.2647)" fill="#BD6FD8"/>
<path fill-rule="evenodd" clip-rule="evenodd" d="M0.0360196 0.49955L-3.82341e-07 1.80046L0.582791 2.18565L0.734843 1.28939L1.80212 1.86584L2.24944 1.46478L2.92065 0.0575227L1.38099 3.35261e-07L0.0360196 0.49955Z" transform="translate(12.3564 10.1579)" fill="#BD6FD8"/>
<path fill-rule="evenodd" clip-rule="evenodd" d="M2.0855e-07 1.26654e-07L0.123078 2.01486L0.885185 4.33012L3.60837 4.00787L3.11285 3.15921L2.0855e-07 1.26654e-07Z" transform="translate(11.5073 6.32727)" fill="#F5F905"/>
<path fill-rule="evenodd" clip-rule="evenodd" d="M3.22392 -4.09763e-08L1.28133 0.875937L0.153432 2.35114L1.18178e-07 3.51557L0.348251 4.38459L4.59188 4.47995L4.19993 1.89821L3.22392 -4.09763e-08Z" transform="translate(5.94971 6.24557)" fill="#F5F905"/>
<path fill-rule="evenodd" clip-rule="evenodd" d="M-8.68957e-08 3.02751L0.368169 1.33753L1.35526 -1.11754e-07L3.80295 0.568364L6.07304 1.78985L3.00568 2.68924L-8.68957e-08 3.02751Z" transform="translate(7.06445 14.1569)" fill="#BD6FD8"/>
<path fill-rule="evenodd" clip-rule="evenodd" d="M6.56453 3.29834L6.26107 1.50521L5.3042 0.393811L2.83612 -1.11754e-07L-8.14647e-10 0.643053L1.09268 5.11391L6.56453 3.29834Z" transform="translate(0.5 13.8861)" fill="#BD6FD8"/>
<path fill-rule="evenodd" clip-rule="evenodd" d="M9.73232e-08 0.295015L1.91431 2.05618L3.11734 2.69649L4.10816 2.58724L4.24363 0.390378L7.00105 3.00646L7.86053 1.68854L8.81762 2.60759e-07L8.74536 1.94526L7.9325 3.29979L7.07828 5.3379L2.84648 3.37135L2.12182 3.82177L0.793185 2.50645L9.73232e-08 0.295015Z" transform="translate(6.29785 10.3351)" fill="#F5F905"/>
<path fill-rule="evenodd" clip-rule="evenodd" d="M0.406822 1.47061L3.12825e-07 2.79918L0.483061 4.57072L3.45895 3.32664L6.34884 4.74953e-08L0.406822 1.47061Z" transform="translate(11.0242 1.75653)" fill="#F5F905"/>
<path fill-rule="evenodd" clip-rule="evenodd" d="M1.04275e-07 -1.45513e-09L4.19283 2.85499L5.59973 4.38027L6.2977 6.24558L2.28252 3.06808L1.04275e-07 -1.45513e-09Z" transform="translate(2.87598)" fill="#F5F905"/>
<path fill-rule="evenodd" clip-rule="evenodd" d="M1.39033e-07 -3.91138e-08L4.36221 0.372191L4.43845 3.47229L5.32364 7.80241L5.67088 9.15504L6.03328 9.76079L7.08974 9.1687L7.1617 10.78L7.91135 12.6727L6.07749 12.6591L3.99376 9.25941L3.47283 7.87054L2.10487 3.39059L1.39033e-07 -3.91138e-08Z" transform="translate(7.06885 2.85498)" fill="#F5F905"/>
<path fill-rule="evenodd" clip-rule="evenodd" d="M2.61559 0.354293L1.26034 3.38181L1.6684e-07 0.477273L0.976999 3.35261e-07L2.61559 0.354293Z" transform="translate(5.8042 13.8026)" fill="#BD6FD8"/>
<path fill-rule="evenodd" clip-rule="evenodd" d="M5.60315 2.9801e-07L5.79797 2.03345L7.91979 5.56021L-8.14647e-10 5.93243L1.80419 1.30724L5.60315 2.9801e-07Z" transform="translate(0.5 8.59674)" fill="#F5F905"/>
<path fill-rule="evenodd" clip-rule="evenodd" d="M-4.17099e-07 2.60759e-07L1.5771 0.1818L2.91809 1.03038L3.46016 4.5798L2.3548 4.85673L1.0546 5.05638L1.93972 1.75659L-4.17099e-07 2.60759e-07Z" transform="translate(13.1758 8.57858)" fill="#F5F905"/>
<path fill-rule="evenodd" clip-rule="evenodd" d="M5.86578 4.74953e-08L2.0855e-07 4.57072L1.66865 6.822L4.58673 7.85238L5.25587 6.95367L4.94671 6.69947L5.41262 6.22289L5.03562 5.88698L5.51 5.49665L5.17543 5.2107L5.99278 2.54635L5.86578 4.74953e-08Z" transform="translate(11.5073 1.75653)" fill="#BD6FD8"/>
<path fill-rule="evenodd" clip-rule="evenodd" d="M8.12306 6.24558L5.05257 8.59672L1.25361 9.90396L0.440457 8.78737L0.749628 8.46512L0.186348 7.85235L0.567515 7.43478L-2.60687e-08 6.91281L0.343047 6.56784L0.152464 3.0774L1.82536 -1.45513e-09L8.12306 6.24558Z" transform="translate(1.05054)" fill="#BD6FD8"/>
<path fill-rule="evenodd" clip-rule="evenodd" d="M5.16397 3.28171L2.19385 0.531059L2.43308e-07 4.09763e-07L0.207505 1.76559L4.92529 3.55544L5.16397 3.28171Z" transform="translate(8.2124 12.3913)" fill="#F5F905"/>
<path fill-rule="evenodd" clip-rule="evenodd" d="M7.39466 1.48889L8.07227 0.031889L6.95281 7.45025e-08L5.74744 0.284793L5.52691 0.526634L-8.68957e-08 0.295168L1.42722 0.894277L5.19654 1.87019L7.39466 1.48889Z" transform="translate(7.06445 16.8893)" fill="#F5F905"/>
<path fill-rule="evenodd" clip-rule="evenodd" d="M5.79371 3.72512e-07L5.97523 0.732084L5.52691 1.62491L4.96362 2.28757L-8.68957e-08 1.39345L5.79371 3.72512e-07Z" transform="translate(7.06445 15.791)" fill="#F5F905"/>
<path fill-rule="evenodd" clip-rule="evenodd" d="M-2.43308e-07 2.09242L0.266801 0.467509L0.554816 0.19065L2.13028 1.49005e-07L2.65121 0.340407L2.81216 0.562795L2.54536 1.59768L0.41508 1.91543L-2.43308e-07 2.09242Z" transform="translate(12.5916 15.3235)" fill="#161616"/>
</svg>
