<svg width="260" height="35" viewBox="0 0 260 35" fill="none" xmlns="http://www.w3.org/2000/svg">
<path d="M0 1.72875e-09H3.26958C4.43728 1.72875e-09 5.37145 0.232029 5.9553 0.8121C6.53916 1.39217 6.7727 2.32029 6.7727 3.59644V6.14876C6.7727 7.42491 6.53916 8.35303 5.9553 8.9331C5.37145 9.51317 4.43728 9.7452 3.26958 9.7452H0V8.58506H0.817394V1.04413H0V1.72875e-09ZM3.03604 8.58506C3.50312 8.58506 3.85343 8.58506 4.20374 8.46904C4.55405 8.35303 4.7876 8.23701 5.02114 8.00498C5.13791 7.88897 5.25468 7.65694 5.37145 7.3089C5.48822 6.96086 5.48822 6.4968 5.48822 6.03274V3.71246C5.48822 3.2484 5.48822 2.78434 5.37145 2.4363C5.25468 2.08826 5.13791 1.85623 4.90437 1.6242C4.7876 1.39217 4.43728 1.27616 4.20374 1.16014C3.85343 1.04413 3.50312 1.04413 3.03604 1.04413H1.9851V8.58506H3.03604Z" transform="translate(138 24.2311)" fill="black"/>
<path d="M0 1.72875e-09H5.9553V1.04413H1.16771V4.29253H5.83853V5.33666H1.16771V8.58506H6.07207V9.62918H0V1.72875e-09Z" transform="translate(149.677 24.232)" fill="black"/>
<path d="M3.50312 9.04911C3.85343 9.04911 4.20374 8.9331 4.55406 8.81708C4.7876 8.70107 5.02114 8.46904 5.25468 8.23701C5.48822 8.121 5.60499 7.77296 5.72176 7.54093C5.83853 7.3089 5.83853 6.96086 5.83853 6.61281V6.38078H7.00624V6.4968C7.00624 6.96086 6.88947 7.42491 6.7727 7.88897C6.65593 8.35303 6.42239 8.70107 6.07207 9.04911C5.83853 9.39715 5.37145 9.62918 5.02114 9.7452C4.55406 9.97723 4.08697 9.97723 3.50312 9.97723C2.45218 9.97723 1.51802 9.62918 0.934166 8.9331C0.350312 8.23701 -8.90889e-07 7.3089 -8.90889e-07 5.91673V3.94448C-8.90889e-07 2.66833 0.350312 1.74021 0.934166 1.04413C1.51802 0.348043 2.45218 -1.72875e-09 3.50312 -1.72875e-09C4.08697 -1.72875e-09 4.55406 0.116014 5.02114 0.232029C5.48822 0.464057 5.83853 0.696086 6.07207 0.928114C6.30561 1.16014 6.53916 1.6242 6.7727 2.08826C7.00624 2.55231 7.00624 3.01637 7.00624 3.48043V3.59644H5.83853V3.48043C5.83853 3.13239 5.72176 2.90036 5.72176 2.55231C5.60499 2.32029 5.48822 2.08826 5.25468 1.85623C5.02114 1.6242 4.7876 1.39217 4.55406 1.27616C4.32052 1.16014 3.9702 1.04413 3.50312 1.04413C2.80249 1.04413 2.21864 1.27616 1.75156 1.85623C1.40125 2.4363 1.16771 3.13239 1.16771 4.0605V6.03274C1.16771 6.96086 1.40125 7.77296 1.75156 8.23701C2.21864 8.81708 2.80249 9.04911 3.50312 9.04911Z" transform="translate(160.537 24)" fill="black"/>
<path d="M0 1.72875e-09H5.9553V1.04413H1.16771V4.29253H5.83853V5.33666H1.16771V8.58506H6.07207V9.62918H0V1.72875e-09Z" transform="translate(172.447 24.232)" fill="black"/>
<path d="M5.13791 9.28114L5.25468 0H6.42238V9.7452H4.08697L1.28448 0.464057H1.16771V9.7452H0V0.116014H2.33541L5.13791 9.28114Z" transform="translate(183.541 24.116)" fill="black"/>
<path d="M-1.78178e-06 1.72875e-09H6.88947V1.04413H3.9702V9.7452H2.8025V1.04413H-1.78178e-06V1.72875e-09Z" transform="translate(194.75 24.232)" fill="black"/>
<path d="M6.7727 2.32029H2.91927V3.94449H6.53916V6.14876H2.91927V9.7452H3.56356e-06V1.72875e-09H7.12301L6.7727 2.32029Z" transform="translate(214.835 24.232)" fill="black"/>
<path d="M7.94041 8.35303C7.5901 8.81708 7.12301 9.16513 6.53915 9.51317C5.9553 9.7452 5.25468 9.86121 4.55406 9.86121H3.9702C3.15281 9.86121 2.56895 9.7452 1.9851 9.51317C1.40124 9.28114 0.934165 8.81708 0.583853 8.35303C0.233541 7.88897 0 7.3089 0 6.61281V1.72875e-09H3.03603V6.61281C3.03603 6.96086 3.15281 7.19288 3.38635 7.42491C3.61989 7.65694 3.85343 7.77296 4.20374 7.77296C4.55405 7.77296 4.7876 7.65694 5.02114 7.42491C5.25468 7.19288 5.37145 6.96086 5.37145 6.61281V1.72875e-09H8.40748V6.61281C8.40748 7.3089 8.17395 7.88897 7.94041 8.35303Z" transform="translate(225.578 24.232)" fill="black"/>
<path d="M8.29071 9.7452H5.72176L2.8025 5.56869V5.45267V9.7452H0V1.72875e-09H2.56895L5.60499 4.29253V4.40854V1.72875e-09H8.40748L8.29071 9.7452Z" transform="translate(238.423 24.232)" fill="black"/>
<path d="M6.53916 0.580071C7.23978 0.928114 7.70687 1.50819 8.05718 2.08826C8.40749 2.78434 8.64103 3.48043 8.64103 4.17651V5.45267C8.64103 6.26477 8.40749 6.96086 8.05718 7.54093C7.70687 8.23701 7.12301 8.70107 6.53916 9.04911C5.83853 9.39716 5.13791 9.62918 4.43728 9.62918H1.78178e-06V1.72875e-09H4.43728C5.25468 1.72875e-09 5.9553 0.116014 6.53916 0.580071ZM3.03604 7.42491H4.08697C4.43729 7.42491 4.7876 7.3089 5.13791 6.96086C5.37145 6.72883 5.60499 6.38078 5.60499 5.91673V3.59644C5.60499 3.2484 5.48822 2.90036 5.13791 2.55231C4.90437 2.32029 4.55406 2.08826 4.08697 2.08826H3.03604V7.42491Z" transform="translate(251.151 24.232)" fill="black"/>
<path d="M1.40125 2.78434C2.17514 2.78434 2.8025 2.16105 2.8025 1.39217C2.8025 0.623296 2.17514 0 1.40125 0C0.62736 0 0 0.623296 0 1.39217C0 2.16105 0.62736 2.78434 1.40125 2.78434Z" transform="translate(205.493 31.3089)" fill="black"/>
<path d="M5.87589 5.23188C5.87589 5.70404 5.7933 6.1229 5.62811 6.48845C5.47079 6.84638 5.25841 7.151 4.99097 7.40231C4.72353 7.64601 4.40889 7.83259 4.04705 7.96205C3.69308 8.09152 3.32338 8.15625 2.93795 8.15625C2.54465 8.15625 2.17101 8.09152 1.81704 7.96205C1.46307 7.83259 1.15237 7.64601 0.884924 7.40231C0.61748 7.151 0.401165 6.84638 0.23598 6.48845C0.0786599 6.1229 0 5.70404 0 5.23188V5.0948C0 4.63025 0.0786599 4.21901 0.23598 3.86108C0.401165 3.49554 0.61748 3.18711 0.884924 2.93579C1.16023 2.68448 1.47487 2.49409 1.82884 2.36463C2.18281 2.23516 2.55251 2.17043 2.93795 2.17043C3.32338 2.17043 3.69308 2.23516 4.04705 2.36463C4.40102 2.49409 4.71173 2.68448 4.97917 2.93579C5.25448 3.18711 5.47079 3.49554 5.62811 3.86108C5.7933 4.21901 5.87589 4.63025 5.87589 5.0948V5.23188ZM2.93795 7.31093C3.22112 7.31093 3.4807 7.26523 3.71668 7.17385C3.96053 7.07484 4.17291 6.93396 4.35382 6.75118C4.53474 6.56841 4.67633 6.35137 4.77859 6.10005C4.88085 5.84112 4.93197 5.55173 4.93197 5.23188V5.0948C4.93197 4.79018 4.88085 4.51221 4.77859 4.2609C4.67633 4.00197 4.53474 3.78112 4.35382 3.59835C4.17291 3.41557 3.96053 3.27469 3.71668 3.17568C3.47283 3.06907 3.21326 3.01576 2.93795 3.01576C2.66264 3.01576 2.40306 3.06907 2.15921 3.17568C1.91537 3.27469 1.70299 3.41557 1.52207 3.59835C1.34115 3.78112 1.19956 4.00197 1.09731 4.2609C0.995048 4.51221 0.943918 4.79018 0.943918 5.0948V5.23188C0.943918 5.55173 0.995048 5.84112 1.09731 6.10005C1.19956 6.35137 1.34115 6.56841 1.52207 6.75118C1.70299 6.93396 1.91144 7.07484 2.14741 7.17385C2.39126 7.26523 2.65477 7.31093 2.93795 7.31093Z" transform="translate(116 26)" fill="black"/>
<path d="M7.51955 2.33036H9.32479V0.891019C9.32479 0.63209 9.40738 0.418855 9.57257 0.251313C9.74562 0.0837711 9.96587 0 10.2333 0H12.5459V0.822478H10.5637C10.3513 0.822478 10.2451 0.936712 10.2451 1.16518V2.33036H12.6875V3.15284H10.2451V7.99632H9.32479V3.15284H7.51955V2.33036Z" transform="translate(116 26)" fill="black"/>
<path d="M8.75456 18C3.94572 18 1.25431e-06 13.9765 1.25431e-06 8.97882C1.25431e-06 3.98118 3.94572 0 8.75456 0C13.5634 0 17.5091 4.02353 17.5091 9.02118C17.5091 14.0188 13.5634 18 8.75456 18ZM8.75456 1.69412C4.84994 1.69412 1.68515 4.95529 1.68515 8.97882C1.68515 13.0024 4.84994 16.2635 8.75456 16.2635C12.6592 16.2635 15.824 13.0024 15.824 8.97882C15.824 4.95529 12.6592 1.69412 8.75456 1.69412Z" transform="translate(41.0189)" fill="black"/>
<path d="M9.84869 0H0V1.66927H9.84869V0Z" transform="translate(45.7581 11.9097) scale(0.984881 1.01488) rotate(-45)" fill="black"/>
<path d="M8.75456 18C3.94572 18 1.25431e-06 13.9765 1.25431e-06 8.97882C1.25431e-06 3.98118 3.94572 0 8.75456 0C13.5634 0 17.5091 4.02353 17.5091 9.02118C17.5091 14.0188 13.5634 18 8.75456 18ZM8.75456 1.69412C4.84995 1.69412 1.68515 4.95529 1.68515 8.97882C1.68515 13.0024 4.84995 16.2635 8.75456 16.2635C12.6592 16.2635 15.824 13.0024 15.824 8.97882C15.824 4.95529 12.6592 1.69412 8.75456 1.69412Z" transform="translate(88.4908)" fill="black"/>
<path d="M9.84869 0H0V1.66927H9.84869V0Z" transform="translate(93.2318 11.9155) scale(0.984881 1.01488) rotate(-45)" fill="black"/>
<path d="M1.64405 0H0V16.3482H1.64405V0Z" transform="translate(0 0.847046)" fill="black"/>
<path d="M8.30244 17.0682L-7.83943e-08 8.55529L8.30244 1.00977e-08L9.45328 1.18588L2.34277 8.55529L9.45328 15.8824L8.30244 17.0682Z" transform="translate(2.95923 0.465881)" fill="black"/>
<path d="M1.64405 0H0V6.22588H1.64405V0Z" transform="translate(26.2225 11.1388)" fill="black"/>
<path d="M7.23381 8.64L3.13577e-07 1.18588L1.19193 1.00977e-08L7.23381 6.22588L13.3168 1.00977e-08L14.4676 1.18588L7.23381 8.64Z" transform="translate(19.8108 0.677612)" fill="black"/>
<path d="M5.54866 16.3482H-1.25431e-06V14.6541H5.54866C9.00116 14.6541 11.8371 11.7318 11.8371 8.17412C11.8371 4.61647 9.04226 1.69412 5.54866 1.69412H-1.25431e-06V0H5.54866C9.90539 0 13.4812 3.68471 13.4812 8.17412C13.4812 12.6635 9.94649 16.3482 5.54866 16.3482Z" transform="translate(67.8992 0.847046)" fill="black"/>
<path d="M1.64405 0H0V8.85176H1.64405V0Z" transform="translate(67.9403 4.65887)" fill="black"/>
</svg>
