<svg width="75" height="75" viewBox="0 0 75 75" fill="none" xmlns="http://www.w3.org/2000/svg">
<rect width="75" height="75" fill="white"/>
<rect width="74" height="74" fill="#F5F905"/>
<path d="M51.2406 26.9739L56.5646 18.1507C56.5646 18.1507 53.7354 19.2745 51.0863 19.2745C48.463 19.2745 46.9198 18.0072 43.8849 18.0072C41.3387 18.0072 39.204 20.1831 39.204 20.1831L44.8108 26.95C38.7667 29.4368 30.125 37.9253 30.125 47.9442C30.125 56.3848 36.0919 64.9929 48 64.9929C59.4194 64.9929 65.875 56.3848 65.875 47.9442C65.875 37.9971 57.3104 29.5085 51.2406 26.9739Z" stroke="black" stroke-width="1.2" stroke-miterlimit="10"/>
<path d="M45.4023 23.7698L47.3313 26.9978L44.7593 32.617" stroke="black" stroke-width="0.8" stroke-miterlimit="10"/>
<path d="M50.5462 31.1824L48.6686 26.9501L50.1089 22.2874" stroke="black" stroke-width="0.8" stroke-miterlimit="10"/>
<path d="M44.8365 26.926L51.2406 26.9738" stroke="black" stroke-width="0.8" stroke-miterlimit="10"/>
<path d="M49.4832 58.7286L46.7377 59.3075L44.4893 48.6458L47.2348 48.0668C50.0476 47.4736 52.8213 49.2812 53.4145 52.094L53.5104 52.5488C54.1204 55.3581 52.3128 58.1318 49.4832 58.7286ZM47.5352 58.0838L49.27 57.718C51.527 57.242 52.9758 55.0189 52.4998 52.7619L52.4039 52.3072C51.9448 50.0466 49.7217 48.5979 47.4479 49.0774L45.713 49.4432L47.5352 58.0838Z" fill="black"/>
<path d="M57.1194 57.0654L56.1088 57.2785L53.871 46.6672L60.6589 45.2358L60.872 46.2464L55.0947 47.4647L57.1194 57.0654Z" fill="black"/>
<path d="M58.7603 49.3307L49.1091 51.366L49.3222 52.3766L58.9734 50.3413L58.7603 49.3307Z" fill="black"/>
<path d="M59.3287 52.0255L49.6775 54.0608L49.8906 55.0714L59.5418 53.0361L59.3287 52.0255Z" fill="black"/>
</svg>
