<svg width="20" height="20" viewBox="0 0 20 20" fill="none" xmlns="http://www.w3.org/2000/svg">
<mask id="path-1-inside-1" fill="white">
<path fill-rule="evenodd" clip-rule="evenodd" d="M17.6917 3.60913L9 10L17.6917 16.3909C15.8574 18.5961 13.0928 20 10 20C4.47705 20 0 15.5228 0 10C0 4.47717 4.47705 0 10 0C13.0928 0 15.8574 1.40393 17.6917 3.60913Z"/>
</mask>
<path d="M9 10L8.40761 9.19435L7.31192 10L8.40761 10.8057L9 10ZM17.6917 3.60913L18.284 4.41478L19.1394 3.78587L18.4605 2.96965L17.6917 3.60913ZM17.6917 16.3909L18.4605 17.0303L19.1394 16.2141L18.284 15.5852L17.6917 16.3909ZM9.59239 10.8057L18.284 4.41478L17.0993 2.80348L8.40761 9.19435L9.59239 10.8057ZM18.284 15.5852L9.59239 9.19435L8.40761 10.8057L17.0993 17.1965L18.284 15.5852ZM16.9228 15.7514C15.2705 17.738 12.7832 19 10 19V21C13.4024 21 16.4444 19.4542 18.4605 17.0303L16.9228 15.7514ZM10 19C5.02934 19 1 14.9706 1 10H-1C-1 16.0751 3.92476 21 10 21V19ZM1 10C1 5.02945 5.02934 1 10 1V-1C3.92476 -1 -1 3.9249 -1 10H1ZM10 1C12.7832 1 15.2705 2.26203 16.9228 4.24861L18.4605 2.96965C16.4444 0.545827 13.4024 -1 10 -1V1Z" fill="black" mask="url(#path-1-inside-1)"/>
</svg>
